<svg width="222" height="68" viewBox="0 0 222 68" fill="none" xmlns="http://www.w3.org/2000/svg">
<path d="M30.75 32.125L36.7125 21.8C34.8688 21.3883 32.9556 21.4005 31.1173 21.8357C29.2789 22.2709 27.5634 23.1178 26.1 24.3125L30.675 32.25L30.75 32.125ZM45.925 30.25C44.775 26.6 41.9875 23.675 38.425 22.325L33.85 30.25H45.925ZM46.25 31.5H36.8875L37.25 32.125L43.2 42.4375C45.3259 40.1426 46.5049 37.1283 46.5 34C46.5 33.1375 46.4125 32.3125 46.25 31.5ZM29.675 34L24.8 25.5625C23.4606 27.0131 22.4855 28.7614 21.9552 30.6632C21.4249 32.565 21.3545 34.5657 21.75 36.5H31.1125L29.675 34ZM22.075 37.75C23.225 41.4 26.0125 44.325 29.575 45.675L34.15 37.75H22.075ZM36.1625 37.75L31.2875 46.2C33.1312 46.6117 35.0444 46.5996 36.8827 46.1643C38.7211 45.7291 40.4366 44.8822 41.9 43.6875L37.325 35.75L36.1625 37.75Z" fill="#6420AA"/>
<path d="M62.152 46H56.296C54.296 46 52.808 45.6 51.832 44.8C50.872 44 50.392 42.768 50.392 41.104V33.64C50.392 31.976 50.872 30.744 51.832 29.944C52.808 29.128 54.296 28.72 56.296 28.72H62.152C62.456 28.72 62.672 28.792 62.8 28.936C62.944 29.064 63.016 29.28 63.016 29.584V32.488C63.016 32.792 62.944 33.016 62.8 33.16C62.672 33.288 62.456 33.352 62.152 33.352H57.328C56.832 33.352 56.464 33.456 56.224 33.664C55.984 33.856 55.864 34.152 55.864 34.552V40.264C55.864 40.664 55.984 40.96 56.224 41.152C56.464 41.328 56.832 41.416 57.328 41.416H62.152C62.456 41.416 62.672 41.488 62.8 41.632C62.944 41.76 63.016 41.976 63.016 42.28V45.136C63.016 45.44 62.944 45.664 62.8 45.808C62.672 45.936 62.456 46 62.152 46ZM80.2491 41.464C80.2491 42.2 80.1371 42.872 79.9131 43.48C79.7051 44.072 79.3211 44.584 78.7611 45.016C78.2171 45.432 77.4571 45.76 76.4811 46C75.5211 46.24 74.2971 46.36 72.8091 46.36C71.3211 46.36 70.0891 46.24 69.1131 46C68.1371 45.76 67.3691 45.432 66.8091 45.016C66.2651 44.584 65.8811 44.072 65.6571 43.48C65.4491 42.872 65.3451 42.2 65.3451 41.464V33.28C65.3451 32.544 65.4491 31.88 65.6571 31.288C65.8811 30.68 66.2651 30.16 66.8091 29.728C67.3691 29.296 68.1371 28.96 69.1131 28.72C70.0891 28.48 71.3211 28.36 72.8091 28.36C74.2971 28.36 75.5211 28.48 76.4811 28.72C77.4571 28.96 78.2171 29.296 78.7611 29.728C79.3211 30.16 79.7051 30.68 79.9131 31.288C80.1371 31.88 80.2491 32.544 80.2491 33.28V41.464ZM70.7931 40.6C70.7931 40.92 70.9131 41.192 71.1531 41.416C71.3931 41.624 71.9451 41.728 72.8091 41.728C73.6731 41.728 74.2251 41.624 74.4651 41.416C74.7051 41.192 74.8251 40.92 74.8251 40.6V34.144C74.8251 33.84 74.7051 33.584 74.4651 33.376C74.2251 33.152 73.6731 33.04 72.8091 33.04C71.9451 33.04 71.3931 33.152 71.1531 33.376C70.9131 33.584 70.7931 33.84 70.7931 34.144V40.6ZM87.7684 46H84.1684C83.8644 46 83.6404 45.936 83.4964 45.808C83.3684 45.664 83.3044 45.44 83.3044 45.136V29.584C83.3044 29.28 83.3684 29.064 83.4964 28.936C83.6404 28.792 83.8644 28.72 84.1684 28.72H86.6644C86.9684 28.72 87.2244 28.768 87.4324 28.864C87.6564 28.96 87.8724 29.128 88.0804 29.368L92.7364 34.696V29.584C92.7364 29.28 92.8004 29.064 92.9284 28.936C93.0724 28.792 93.2964 28.72 93.6004 28.72H97.2004C97.5044 28.72 97.7204 28.792 97.8484 28.936C97.9924 29.064 98.0644 29.28 98.0644 29.584V45.136C98.0644 45.44 97.9924 45.664 97.8484 45.808C97.7204 45.936 97.5044 46 97.2004 46H93.6004C93.2964 46 93.0724 45.936 92.9284 45.808C92.8004 45.664 92.7364 45.44 92.7364 45.136V42.184L88.6324 37.216V45.136C88.6324 45.44 88.5604 45.664 88.4164 45.808C88.2884 45.936 88.0724 46 87.7684 46ZM105.839 46H102.239C101.935 46 101.711 45.936 101.567 45.808C101.439 45.664 101.375 45.44 101.375 45.136V29.584C101.375 29.28 101.439 29.064 101.567 28.936C101.711 28.792 101.935 28.72 102.239 28.72H104.735C105.039 28.72 105.295 28.768 105.503 28.864C105.727 28.96 105.943 29.128 106.151 29.368L110.807 34.696V29.584C110.807 29.28 110.871 29.064 110.999 28.936C111.143 28.792 111.367 28.72 111.671 28.72H115.271C115.575 28.72 115.791 28.792 115.919 28.936C116.063 29.064 116.135 29.28 116.135 29.584V45.136C116.135 45.44 116.063 45.664 115.919 45.808C115.791 45.936 115.575 46 115.271 46H111.671C111.367 46 111.143 45.936 110.999 45.808C110.871 45.664 110.807 45.44 110.807 45.136V42.184L106.703 37.216V45.136C106.703 45.44 106.631 45.664 106.487 45.808C106.359 45.936 106.143 46 105.839 46ZM131.445 46H120.309C120.005 46 119.781 45.936 119.637 45.808C119.509 45.664 119.445 45.44 119.445 45.136V29.584C119.445 29.28 119.509 29.064 119.637 28.936C119.781 28.792 120.005 28.72 120.309 28.72H131.445C131.749 28.72 131.965 28.792 132.093 28.936C132.237 29.064 132.309 29.28 132.309 29.584V32.392C132.309 32.696 132.237 32.92 132.093 33.064C131.965 33.192 131.749 33.256 131.445 33.256H124.821V35.104H129.501C129.805 35.104 130.021 35.176 130.149 35.32C130.293 35.448 130.365 35.664 130.365 35.968V38.536C130.365 38.84 130.293 39.064 130.149 39.208C130.021 39.336 129.805 39.4 129.501 39.4H124.821V41.464H131.445C131.749 41.464 131.965 41.536 132.093 41.68C132.237 41.808 132.309 42.024 132.309 42.328V45.136C132.309 45.44 132.237 45.664 132.093 45.808C131.965 45.936 131.749 46 131.445 46ZM146.527 46H140.671C138.671 46 137.183 45.6 136.207 44.8C135.247 44 134.767 42.768 134.767 41.104V33.64C134.767 31.976 135.247 30.744 136.207 29.944C137.183 29.128 138.671 28.72 140.671 28.72H146.527C146.831 28.72 147.047 28.792 147.175 28.936C147.319 29.064 147.391 29.28 147.391 29.584V32.488C147.391 32.792 147.319 33.016 147.175 33.16C147.047 33.288 146.831 33.352 146.527 33.352H141.703C141.207 33.352 140.839 33.456 140.599 33.664C140.359 33.856 140.239 34.152 140.239 34.552V40.264C140.239 40.664 140.359 40.96 140.599 41.152C140.839 41.328 141.207 41.416 141.703 41.416H146.527C146.831 41.416 147.047 41.488 147.175 41.632C147.319 41.76 147.391 41.976 147.391 42.28V45.136C147.391 45.44 147.319 45.664 147.175 45.808C147.047 45.936 146.831 46 146.527 46ZM158.261 46H154.373C154.069 46 153.845 45.936 153.701 45.808C153.573 45.664 153.509 45.44 153.509 45.136V33.352H149.981C149.677 33.352 149.453 33.288 149.309 33.16C149.181 33.016 149.117 32.792 149.117 32.488V29.584C149.117 29.28 149.181 29.064 149.309 28.936C149.453 28.792 149.677 28.72 149.981 28.72H162.653C162.957 28.72 163.173 28.792 163.301 28.936C163.445 29.064 163.517 29.28 163.517 29.584V32.488C163.517 32.792 163.445 33.016 163.301 33.16C163.173 33.288 162.957 33.352 162.653 33.352H159.125V45.136C159.125 45.44 159.053 45.664 158.909 45.808C158.781 45.936 158.565 46 158.261 46ZM166.331 46C166.027 46 165.803 45.936 165.659 45.808C165.531 45.664 165.467 45.44 165.467 45.136V42.28C165.467 41.976 165.531 41.76 165.659 41.632C165.803 41.488 166.027 41.416 166.331 41.416H168.707V33.352H166.331C166.027 33.352 165.803 33.288 165.659 33.16C165.531 33.016 165.467 32.792 165.467 32.488V29.584C165.467 29.28 165.531 29.064 165.659 28.936C165.803 28.792 166.027 28.72 166.331 28.72H176.555C176.859 28.72 177.075 28.792 177.203 28.936C177.347 29.064 177.419 29.28 177.419 29.584V32.488C177.419 32.792 177.347 33.016 177.203 33.16C177.075 33.288 176.859 33.352 176.555 33.352H174.227V41.416H176.555C176.859 41.416 177.075 41.488 177.203 41.632C177.347 41.76 177.419 41.976 177.419 42.28V45.136C177.419 45.44 177.347 45.664 177.203 45.808C177.075 45.936 176.859 46 176.555 46H166.331ZM184.967 46H181.247C180.943 46 180.719 45.936 180.575 45.808C180.447 45.664 180.383 45.44 180.383 45.136V29.584C180.383 29.28 180.447 29.064 180.575 28.936C180.719 28.792 180.943 28.72 181.247 28.72H191.951C192.255 28.72 192.471 28.792 192.599 28.936C192.743 29.064 192.815 29.28 192.815 29.584V32.44C192.815 32.744 192.743 32.968 192.599 33.112C192.471 33.24 192.255 33.304 191.951 33.304H185.831V35.8H190.007C190.311 35.8 190.527 35.872 190.655 36.016C190.799 36.144 190.871 36.36 190.871 36.664V39.544C190.871 39.848 190.799 40.072 190.655 40.216C190.527 40.344 190.311 40.408 190.007 40.408H185.831V45.136C185.831 45.44 185.759 45.664 185.615 45.808C185.487 45.936 185.271 46 184.967 46ZM204.483 42.568H199.611L195.555 37.144C195.187 36.648 194.939 36.216 194.811 35.848C194.699 35.48 194.643 34.928 194.643 34.192V29.584C194.643 29.28 194.707 29.064 194.835 28.936C194.979 28.792 195.203 28.72 195.507 28.72H199.203C199.507 28.72 199.723 28.792 199.851 28.936C199.995 29.064 200.067 29.28 200.067 29.584V33.52C200.067 33.68 200.075 33.848 200.091 34.024C200.107 34.2 200.171 34.368 200.283 34.528L201.387 36.256C201.467 36.4 201.547 36.504 201.627 36.568C201.723 36.632 201.835 36.664 201.963 36.664H202.203C202.331 36.664 202.435 36.632 202.515 36.568C202.611 36.504 202.699 36.4 202.779 36.256L203.883 34.528C203.995 34.368 204.059 34.2 204.075 34.024C204.091 33.848 204.099 33.68 204.099 33.52V29.584C204.099 29.28 204.163 29.064 204.291 28.936C204.435 28.792 204.659 28.72 204.963 28.72H208.539C208.843 28.72 209.059 28.792 209.187 28.936C209.331 29.064 209.403 29.28 209.403 29.584V34.192C209.403 34.928 209.339 35.48 209.211 35.848C209.083 36.216 208.843 36.648 208.491 37.144L204.483 42.568ZM203.979 46H200.091C199.787 46 199.563 45.936 199.419 45.808C199.291 45.664 199.227 45.44 199.227 45.136V40.624H204.843V45.136C204.843 45.44 204.771 45.664 204.627 45.808C204.499 45.936 204.283 46 203.979 46Z" fill="#6420AA"/>
</svg>
